<?xml version="1.0" standalone="no"?>
<!DOCTYPE svg PUBLIC "-//W3C//DTD SVG 20010904//EN"
 "http://www.w3.org/TR/2001/REC-SVG-20010904/DTD/svg10.dtd">
<svg version="1.0" xmlns="http://www.w3.org/2000/svg"
 width="351.000000pt" height="351.000000pt" viewBox="0 0 351.000000 351.000000"
 preserveAspectRatio="xMidYMid meet">

<g transform="translate(0.000000,351.000000) scale(0.100000,-0.100000)"
fill="#000000" stroke="none">
<path d="M1590 3499 c-294 -28 -606 -144 -850 -317 -122 -86 -326 -290 -412
-412 -379 -537 -428 -1238 -127 -1820 86 -165 176 -287 319 -430 143 -143 265
-233 430 -319 490 -253 1060 -263 1558 -26 474 226 820 647 946 1153 40 157
50 247 50 427 0 180 -10 270 -50 427 -126 506 -472 927 -946 1153 -292 138
-604 194 -918 164z m495 -109 c336 -71 603 -216 846 -459 245 -245 387 -506
461 -846 19 -87 22 -131 22 -330 0 -201 -2 -243 -22 -332 -74 -338 -216 -599
-461 -844 -244 -244 -508 -387 -851 -460 -91 -20 -134 -23 -325 -23 -191 0
-234 3 -325 23 -344 74 -635 233 -871 477 -227 236 -370 506 -440 834 -20 91
-23 134 -23 325 0 191 3 234 23 325 74 344 233 635 477 871 262 253 585 410
944 459 115 16 432 4 545 -20z"/>
<path d="M1609 2814 c-36 -44 23 -526 117 -949 20 -88 40 -178 44 -200 5 -22
9 -86 10 -143 0 -105 -12 -154 -43 -180 -14 -12 -20 -10 -42 14 -35 38 -63
137 -81 289 -31 262 -54 331 -127 375 -67 41 -103 19 -94 -59 l6 -50 -30 11
c-65 23 -144 -20 -194 -106 -62 -106 -90 -334 -65 -518 32 -237 4 -403 -83
-495 -66 -70 -148 -53 -253 51 -81 82 -150 207 -185 341 -30 115 -37 312 -15
444 42 246 137 413 189 329 8 -13 22 -52 32 -88 23 -85 47 -131 85 -163 54
-46 150 -47 158 -3 7 35 -51 249 -76 283 -35 47 -136 94 -216 100 -57 5 -72 2
-121 -22 -136 -66 -229 -267 -256 -552 -28 -302 58 -594 220 -752 97 -95 235
-143 342 -120 146 31 275 152 320 299 l20 68 30 -10 c105 -37 218 53 250 200
7 28 14 52 16 52 2 0 18 -7 35 -16 92 -47 217 26 265 155 21 58 18 55 43 41
32 -17 70 -5 70 23 0 13 -15 90 -34 173 -18 82 -37 167 -41 188 l-6 39 63 -65
c100 -101 216 -146 304 -118 102 34 172 118 194 235 l12 62 50 -14 c66 -16
118 -8 191 30 70 36 134 107 176 191 37 77 50 133 51 219 0 71 -13 108 -49
141 -39 35 -48 17 -54 -111 -9 -167 -35 -251 -101 -321 -57 -62 -99 -61 -164
1 -43 41 -88 126 -70 131 7 2 31 9 53 15 58 15 118 70 146 133 19 44 23 70 23
148 0 81 -4 103 -26 151 -39 85 -72 104 -180 104 -98 0 -118 -10 -175 -84 -51
-65 -75 -157 -75 -281 0 -126 19 -214 68 -317 36 -74 37 -78 31 -160 -6 -86
-25 -135 -59 -156 -25 -17 -86 7 -146 56 -87 72 -86 69 -37 169 74 152 85 281
31 352 -36 47 -112 86 -169 86 -56 0 -88 -24 -130 -98 l-31 -56 -22 148 c-38
252 -60 320 -118 356 -40 24 -59 25 -77 4z m930 -150 c22 -60 21 -240 -2 -281
-20 -38 -58 -66 -70 -54 -5 5 -11 51 -14 103 -9 143 23 288 60 275 7 -2 18
-21 26 -43z m-513 -350 c11 -62 -13 -153 -72 -274 -64 -129 -72 -129 -73 -5
-2 208 116 434 145 279z m-637 -553 c63 -124 100 -511 58 -604 -24 -54 -52
-48 -93 21 -52 87 -69 174 -69 352 1 155 11 220 41 268 18 28 36 18 63 -37z"/>
<path d="M2814 1564 c9 -33 -9 -54 -45 -54 -33 0 -45 -15 -29 -35 17 -21 42
-19 63 5 9 11 21 20 27 20 27 0 91 -198 76 -236 -7 -19 -8 -19 -21 0 -8 10
-24 49 -36 85 -12 36 -28 74 -37 84 -16 18 -52 24 -52 8 0 -5 18 -60 40 -121
39 -108 51 -190 29 -190 -15 0 -57 98 -65 155 -8 60 -18 75 -50 75 -19 0 -26
-7 -30 -30 -6 -28 -24 -43 -24 -20 0 16 -40 51 -50 45 -25 -15 -6 -94 30 -125
9 -8 29 -61 44 -120 27 -109 32 -150 17 -150 -16 0 -30 26 -70 134 -22 59 -50
119 -62 132 -51 54 -51 18 -3 -113 51 -139 67 -200 56 -219 -7 -13 -11 -9 -16
22 -12 59 -73 181 -112 219 -41 41 -80 47 -93 13 -5 -14 -10 -17 -15 -10 -4 7
-12 12 -18 12 -14 0 -4 -47 37 -177 19 -59 33 -109 31 -110 -1 -2 -33 7 -71
20 -80 26 -98 46 -120 132 -15 61 -10 115 12 122 6 2 21 -26 33 -63 21 -63 70
-129 78 -105 2 6 -6 41 -19 78 -39 118 -133 185 -160 116 -16 -40 -5 -140 20
-199 31 -72 74 -110 156 -137 55 -19 71 -28 73 -45 2 -14 -3 -25 -13 -28 -23
-9 -96 14 -122 39 -13 11 -25 18 -28 15 -3 -3 2 -35 11 -72 9 -37 14 -70 10
-73 -15 -16 -48 37 -77 126 -37 111 -52 144 -80 172 -27 27 -49 10 -49 -38 l0
-34 -31 23 c-26 19 -31 20 -39 8 -5 -8 -10 -30 -10 -48 l0 -33 -24 28 c-13 15
-27 25 -31 22 -3 -4 14 -69 39 -145 47 -144 59 -204 40 -211 -14 -5 -38 49
-64 146 -22 81 -53 141 -77 149 -8 2 -13 -5 -13 -16 0 -15 -5 -18 -24 -15 -42
8 -50 -24 -42 -169 4 -85 3 -135 -4 -148 -14 -27 -55 -26 -74 2 -21 30 -20 36
6 40 33 5 50 46 37 92 -13 49 -42 76 -79 76 -38 0 -53 -28 -53 -101 1 -59 12
-89 46 -126 41 -45 130 -38 157 12 12 22 14 23 36 9 37 -25 73 -11 90 34 1 1
13 -4 28 -12 31 -16 62 -11 70 11 4 9 13 12 26 8 24 -8 25 1 5 47 -17 43 -51
176 -60 238 -9 68 9 38 40 -65 39 -129 89 -214 113 -191 2 3 -10 49 -27 103
-31 100 -57 230 -48 239 3 3 20 -43 38 -102 26 -85 41 -116 70 -146 55 -58 94
-48 106 25 l5 36 49 -6 c53 -6 89 12 89 46 0 9 11 -2 25 -23 22 -37 51 -63 60
-54 2 2 -5 32 -15 67 -27 84 -26 93 5 81 49 -18 92 11 110 76 4 16 11 20 30
16 19 -3 27 2 36 22 9 19 17 25 31 20 24 -7 24 -3 -17 120 -19 59 -38 124 -41
145 -10 65 12 54 31 -15 20 -76 56 -124 91 -124 28 0 44 26 44 74 0 29 4 36
19 36 22 0 51 63 51 110 0 22 5 30 18 30 25 0 42 40 42 100 0 58 -7 80 -26 80
-17 0 -17 -4 -3 -54 6 -21 8 -50 4 -64 -6 -25 -7 -25 -24 -6 -10 10 -30 51
-44 90 -24 67 -24 72 -9 89 16 17 16 17 -10 11 -15 -3 -30 -2 -33 4 -3 5 -15
10 -27 10 -17 0 -19 -4 -14 -26z m-322 -510 c37 -69 70 -171 61 -187 -15 -26
-78 76 -107 172 -33 113 -11 121 46 15z m-594 -357 c43 -114 49 -224 10 -180
-35 39 -67 233 -39 233 5 0 18 -24 29 -53z m-173 -87 c4 -24 1 -41 -9 -55 -14
-19 -15 -18 -21 18 -8 42 2 95 15 81 5 -5 11 -25 15 -44z"/>
<path d="M2490 1320 c0 -24 34 -60 55 -60 27 0 29 30 5 56 -29 30 -60 32 -60
4z"/>
<path d="M1515 735 c-31 -42 -53 -80 -50 -85 9 -15 36 -12 56 6 17 15 18 15
23 -7 3 -13 14 -71 25 -128 21 -105 32 -131 57 -131 10 0 13 8 9 23 -2 12 -14
75 -25 139 -11 64 -25 129 -30 144 -10 24 -7 31 21 60 34 35 32 54 -6 54 -18
0 -37 -18 -80 -75z"/>
</g>
</svg>
